<?xml version="1.0" standalone="no"?>
<!DOCTYPE svg PUBLIC "-//W3C//DTD SVG 20010904//EN"
 "http://www.w3.org/TR/2001/REC-SVG-20010904/DTD/svg10.dtd">
<svg version="1.0" xmlns="http://www.w3.org/2000/svg"
 width="1024.000000pt" height="1024.000000pt" viewBox="0 0 1024.000000 1024.000000"
 preserveAspectRatio="xMidYMid meet">
<metadata>
Created by potrace 1.14, written by Peter Selinger 2001-2017
</metadata>
<g transform="translate(0.000000,1024.000000) scale(0.100000,-0.100000)"
fill="#000000" stroke="none">
<path d="M4277 8704 c-1 -1 -171 -5 -377 -9 -521 -9 -984 -20 -1185 -30 -49
-2 -164 -7 -255 -10 -91 -4 -192 -8 -225 -10 -33 -1 -121 -6 -195 -9 -74 -4
-160 -9 -190 -11 -30 -3 -98 -7 -150 -10 -52 -3 -122 -8 -155 -11 -33 -3 -77
-7 -98 -9 -21 -2 -57 -6 -80 -10 -23 -4 -54 -8 -69 -11 -100 -15 -154 -28
-211 -49 -20 -8 -39 -15 -42 -15 -28 -2 -179 -73 -264 -125 -86 -52 -234 -181
-302 -263 -172 -207 -332 -670 -374 -1082 -3 -30 -8 -75 -10 -100 -8 -72 -16
-151 -20 -200 -3 -41 -7 -82 -20 -250 -2 -30 -7 -98 -10 -150 -3 -52 -8 -122
-10 -155 -23 -361 -23 -1774 0 -2120 1 -22 6 -94 10 -160 4 -66 9 -138 11
-160 2 -22 6 -76 9 -120 3 -44 8 -100 10 -125 3 -25 7 -72 10 -105 5 -57 12
-119 20 -195 2 -19 7 -62 10 -95 3 -33 15 -98 25 -145 10 -47 21 -99 24 -117
4 -18 11 -45 17 -60 6 -15 10 -30 10 -33 -4 -43 118 -367 179 -475 103 -184
272 -346 465 -448 163 -86 377 -149 585 -172 30 -3 66 -8 80 -10 14 -2 50 -7
80 -10 30 -3 62 -8 70 -10 16 -4 161 -16 250 -20 30 -2 107 -6 170 -9 303 -17
616 -28 1150 -41 1500 -39 2639 -39 3930 0 124 4 261 8 305 10 44 1 161 6 260
9 99 4 205 9 235 11 30 2 120 7 200 10 80 3 170 8 200 10 30 2 99 6 153 10
124 8 186 13 262 20 152 15 210 24 305 47 358 87 650 305 818 609 75 136 179
435 207 598 3 19 8 37 10 40 2 4 6 26 10 51 4 25 8 47 10 50 1 3 6 39 10 80 4
41 9 83 10 92 3 16 8 61 21 203 3 33 7 76 9 95 2 19 7 73 10 120 3 47 8 110
11 140 5 72 12 167 21 315 4 66 8 530 8 1030 0 793 -4 1052 -20 1245 -2 25 -6
83 -10 130 -3 47 -8 105 -10 130 -3 25 -7 74 -10 110 -2 36 -6 89 -9 118 -4
29 -8 76 -11 105 -19 193 -26 245 -51 360 -8 39 -17 80 -19 89 -28 134 -100
346 -160 474 -83 178 -161 280 -320 419 -49 43 -185 131 -260 168 -62 31 -195
81 -250 93 -67 16 -230 43 -290 48 -38 4 -88 9 -110 11 -46 5 -194 15 -305 21
-41 2 -118 6 -170 9 -394 21 -882 39 -1360 50 -146 3 -359 8 -475 11 -220 6
-2103 13 -2108 8z"/>
</g>
</svg>
